HIERARCHY
ROOT Hips
{
	OFFSET 0.00000 0.00000 0.00000
	CHANNELS 6 Xposition Yposition Zposition Zrotation Yrotation Xrotation 
	JOINT LHipJoint
	{
		OFFSET 0 0 0
		CHANNELS 3 Zrotation Yrotation Xrotation
		JOINT LeftHip
		{
			OFFSET 1.54859 -1.61379 0.86856
			CHANNELS 3 Zrotation Yrotation Xrotation
			JOINT LeftKnee
			{
				OFFSET 2.25087 -6.18423 0.00000
				CHANNELS 3 Zrotation Yrotation Xrotation
				JOINT LeftAnkle
				{
					OFFSET 2.40328 -6.60297 0.00000
					CHANNELS 3 Zrotation Yrotation Xrotation
					JOINT LeftToe
					{
						OFFSET 0.17435 -0.47901 2.02453
						CHANNELS 3 Zrotation Yrotation Xrotation
						End Site
						{
							OFFSET 0.00000 -0.00000 1.04844
						}
					}
				}
			}
		}
	}
	JOINT RHipJoint
	{
		OFFSET 0 0 0
		CHANNELS 3 Zrotation Yrotation Xrotation
		JOINT RightHip
		{
			OFFSET -1.54669 -1.61379 0.86856
			CHANNELS 3 Zrotation Yrotation Xrotation
			JOINT RightKnee
			{
				OFFSET -2.28132 -6.26789 0.00000
				CHANNELS 3 Zrotation Yrotation Xrotation
				JOINT RightAnkle
				{
					OFFSET -2.51636 -6.91365 0.00000
					CHANNELS 3 Zrotation Yrotation Xrotation
					JOINT RightToe
					{
						OFFSET -0.15124 -0.41552 2.21090
						CHANNELS 3 Zrotation Yrotation Xrotation
						End Site
						{
							OFFSET -0.00000 -0.00000 1.13399
						}
					}
				}
			}
		}
	}
	JOINT lowerback
	{
		OFFSET 0 0 0
		CHANNELS 3 Zrotation Yrotation Xrotation
		JOINT Chest
		{
			OFFSET -0.04287 2.26161 -0.25690
			CHANNELS 3 Zrotation Yrotation Xrotation
			JOINT Chest2
			{
				OFFSET 0.02248 2.28395 -0.10140
				CHANNELS 3 Zrotation Yrotation Xrotation
				JOINT lowerneck
				{
					OFFSET 0 0 0
					CHANNELS 3 Zrotation Yrotation Xrotation
					JOINT Neck
					{
						OFFSET -0.11644 1.38496 0.11345
						CHANNELS 3 Zrotation Yrotation Xrotation
						JOINT Head
						{
							OFFSET 0.29383 1.36600 0.06642
							CHANNELS 3 Zrotation Yrotation Xrotation
							End Site
							{
								OFFSET 0.11075 1.41395 -0.00294
							}
						}
					}
				}
				JOINT LeftCollar
				{
					OFFSET 0 0 0
					CHANNELS 3 Zrotation Yrotation Xrotation
					JOINT LeftShoulder
					{
						OFFSET 3.51628 0.59542 -0.30346
CHANNELS 3 Zrotation Xrotation Yrotation
						JOINT LeftElbow
						{
OFFSET 0 -4.764050 0.000000
CHANNELS 3 Zrotation Xrotation Yrotation
							JOINT LeftWrist
							{
OFFSET 0 -3.137590 -0.000000
CHANNELS 3 Zrotation Xrotation Yrotation
								JOINT lhand
								{
									OFFSET 0 0 0
CHANNELS 3 Zrotation Xrotation Yrotation
									JOINT LFingers
									{
OFFSET 0 -0.732260 -0.000000
CHANNELS 3 Zrotation Xrotation Yrotation
										End Site
										{
OFFSET 0 -0.590370 -0.000000
										}
									}
								}
								JOINT LThumb
								{
OFFSET 0 0.000000 0.000000
CHANNELS 3 Zrotation Xrotation Yrotation
									End Site
									{
OFFSET 0 -0.599380 0.599380
									}
								}
							}
						}
					}
				}
				JOINT RightCollar
				{
					OFFSET 0 0 0
					CHANNELS 3 Zrotation Yrotation Xrotation
					JOINT RightShoulder
					{
						OFFSET -3.30990 0.84213 -0.36430
CHANNELS 3 Zrotation Xrotation Yrotation
						JOINT RightElbow
						{
OFFSET 0 -5.101610 -0.000000
CHANNELS 3 Zrotation Xrotation Yrotation
							JOINT RightWrist
							{
OFFSET 0 -3.232670 -0.000000
CHANNELS 3 Zrotation Xrotation Yrotation
								JOINT rhand
								{
									OFFSET 0 0 0
CHANNELS 3 Zrotation Xrotation Yrotation
									JOINT RFingers
									{
OFFSET 0 -0.702000 -0.000000
CHANNELS 3 Zrotation Xrotation Yrotation
										End Site
										{
OFFSET 0 -0.565970 -0.000000
										}
									}
								}
								JOINT RThumb
								{
OFFSET 0 0.000000 0.000000
CHANNELS 3 Zrotation Xrotation Yrotation
									End Site
									{
OFFSET 0 -0.574610 0.574610
									}
								}
							}
						}
					}
				}
			}
		}
	}
}
MOTION
Frames: 7
Frame Time: 0.008333333333333333
-23.292176 13.771837 5.071553 194.613431 20.557619 206.217594 0.000000 0.000000 0.000000 -18.888771 -1.061501 -53.845819 17.907325 19.893516 83.870767 -1.847224 24.504636 -18.041816 8.307466 16.340757 53.662588 0.000000 0.000000 0.000000 17.006850 -15.042552 -14.821259 -14.662769 -19.283679 74.204133 0.031193 4.171685 -1.355937 -6.428876 14.831451 -46.679681 0.596640 -2.694279 22.807482 -0.926163 -1.423472 11.776464 -1.010628 0.127274 0.114478 -5.785683 -1.685182 -2.139819 15.558161 4.512628 -30.152628 6.021848 2.932378 -9.483183 0.000000 0.000000 0.000000 -6.756994 8.007814 -29.755484 24.484351 -35.667688 7.989165 -14.620627 -72.805842 -63.666261 0.000000 0.000000 0.000000 -7.125000 0.000000 0.000000 -82.765074 -67.959691 -105.825049 0.000000 0.000000 0.000000 4.755425 -2.390401 -2.087998 -94.326205 -59.927518 -63.745662 -24.621488 -55.671483 -20.824423 0.000000 0.000000 0.000000 7.125000 0.000000 0.000000 2.511679 7.292704 2.172954
-23.277227 13.777812 4.990759 194.083292 19.906756 205.847783 0.000000 0.000000 0.000000 -19.129312 -1.852902 -52.923156 17.792575 19.882248 83.533601 -1.853073 24.495107 -17.900647 8.314297 16.345572 53.686864 0.000000 0.000000 0.000000 16.677650 -15.556456 -15.629878 -15.099207 -19.405437 75.528799 0.023378 4.068354 -1.724312 -6.429229 14.831754 -46.681042 0.669821 -3.084938 23.026646 -1.016788 -1.878715 11.867493 -1.047685 -0.078379 0.094135 -5.832949 -1.650747 -2.008558 15.563782 4.564583 -30.240985 6.033343 2.954234 -9.548448 0.000000 0.000000 0.000000 -6.725382 7.114343 -29.965951 24.750252 -35.945563 8.143694 -13.397981 -72.417326 -63.964984 0.000000 0.000000 0.000000 -7.125000 0.000000 0.000000 -83.722121 -68.386474 -106.410748 0.000000 0.000000 0.000000 4.634676 -2.333304 -2.320094 -94.671614 -59.916653 -64.044587 -24.425263 -55.806248 -20.654870 0.000000 0.000000 0.000000 7.125000 0.000000 0.000000 2.618337 7.508011 2.255361
-23.265508 13.780960 4.911294 193.515521 19.129205 205.630195 0.000000 0.000000 0.000000 -19.416927 -2.844759 -52.149305 17.672786 19.868987 83.181186 -1.871734 24.545269 -17.744738 8.310060 16.342574 53.671814 0.000000 0.000000 0.000000 16.342863 -16.166187 -16.679490 -15.542807 -19.507584 76.861134 0.018558 4.038623 -1.971037 -6.297490 14.702464 -46.149138 0.855874 -3.520926 23.080318 -1.096787 -2.393156 11.906786 -1.124497 -0.317106 0.083675 -5.871856 -1.614711 -1.882179 15.562177 4.597214 -30.262032 6.039421 2.962209 -9.585118 0.000000 0.000000 0.000000 -6.686479 6.231966 -30.133473 24.980851 -36.183240 8.279081 -12.143809 -71.969964 -64.262574 0.000000 0.000000 0.000000 -7.125000 0.000000 0.000000 -84.785739 -68.797618 -107.106388 0.000000 0.000000 0.000000 4.511061 -2.282586 -2.585162 -94.946485 -59.907090 -64.282440 -24.221682 -56.136808 -20.554657 0.000000 0.000000 0.000000 7.125000 0.000000 0.000000 2.737483 7.649537 2.351128
-23.256811 13.781465 4.833071 192.912529 18.233086 205.555073 0.000000 0.000000 0.000000 -19.748597 -4.024223 -51.514727 17.548280 19.853862 82.814501 -1.902388 24.651297 -17.575033 8.295465 16.332264 53.619960 0.000000 0.000000 0.000000 16.002849 -16.865602 -17.954646 -15.993109 -19.591378 78.200648 0.016542 4.077772 -2.103912 -6.042126 14.451890 -45.118154 1.147564 -3.999336 22.979105 -1.166842 -2.962998 11.897661 -1.238516 -0.586789 0.082465 -5.902938 -1.577175 -1.760371 15.553808 4.611759 -30.220085 6.040429 2.957192 -9.595025 0.000000 0.000000 0.000000 -6.640750 5.359973 -30.260802 25.178412 -36.383296 8.396554 -10.860132 -71.467530 -64.559104 0.000000 0.000000 0.000000 -7.125000 0.000000 0.000000 -85.949094 -69.194126 -107.904924 0.000000 0.000000 0.000000 4.384766 -2.237841 -2.881086 -95.155339 -59.898746 -64.463135 -24.011215 -56.650612 -20.519339 0.000000 0.000000 0.000000 7.125000 0.000000 0.000000 2.868316 7.722012 2.459399
-23.248114 13.781969 4.754849 192.309538 17.336968 205.479952 0.000000 0.000000 0.000000 -20.080268 -5.203687 -50.880148 17.423774 19.838737 82.447815 -1.933042 24.757325 -17.405328 8.280869 16.321953 53.568106 0.000000 0.000000 0.000000 15.662834 -17.565017 -19.229802 -16.443412 -19.675171 79.540162 0.014525 4.116921 -2.236787 -5.786762 14.201316 -44.087169 1.439253 -4.477747 22.877892 -1.236897 -3.532840 11.888535 -1.352535 -0.856471 0.081255 -5.934020 -1.539639 -1.638562 15.545438 4.626304 -30.178137 6.041438 2.952176 -9.604932 0.000000 0.000000 0.000000 -6.595022 4.487979 -30.388131 25.375972 -36.583352 8.514026 -9.576456 -70.965096 -64.855634 0.000000 0.000000 0.000000 -7.125000 0.000000 0.000000 -87.112449 -69.590633 -108.703459 0.000000 0.000000 0.000000 4.258470 -2.193096 -3.177011 -95.364193 -59.890402 -64.643831 -23.800747 -57.164415 -20.484022 0.000000 0.000000 0.000000 7.125000 0.000000 0.000000 2.999149 7.794487 2.567671
-23.239417 13.782473 4.676626 191.706546 16.440850 205.404830 0.000000 0.000000 0.000000 -20.411938 -6.383151 -50.245570 17.299269 19.823611 82.081130 -1.963696 24.863352 -17.235623 8.266273 16.311643 53.516252 0.000000 0.000000 0.000000 15.322819 -18.264432 -20.504958 -16.893715 -19.758965 80.879675 0.012508 4.156070 -2.369662 -5.531398 13.950741 -43.056184 1.730943 -4.956157 22.776679 -1.306952 -4.102682 11.879410 -1.466554 -1.126154 0.080045 -5.965103 -1.502104 -1.516754 15.537069 4.640850 -30.136190 6.042446 2.947159 -9.614839 0.000000 0.000000 0.000000 -6.549293 3.615986 -30.515460 25.573532 -36.783409 8.631498 -8.292779 -70.462662 -65.152163 0.000000 0.000000 0.000000 -7.125000 0.000000 0.000000 -88.275805 -69.987140 -109.501995 0.000000 0.000000 0.000000 4.132175 -2.148350 -3.472936 -95.573047 -59.882058 -64.824527 -23.590280 -57.678218 -20.448705 0.000000 0.000000 0.000000 7.125000 0.000000 0.000000 3.129982 7.866962 2.675942
-23.207302 13.796362 4.596505 191.503589 16.371600 205.142785 0.000000 0.000000 0.000000 -20.595387 -6.192699 -49.385756 17.139443 19.801004 81.609122 -1.928975 24.680571 -17.201046 8.303750 16.337637 53.648757 0.000000 0.000000 0.000000 15.126593 -18.072532 -21.177982 -17.286139 -19.817027 82.040677 0.002316 3.800837 -2.671766 -5.417993 13.839590 -42.598593 1.423509 -4.984982 23.024676 -1.345899 -4.177684 11.917299 -1.311315 -1.165584 0.019710 -5.956334 -1.465953 -1.381048 15.491689 4.640943 -30.083809 6.022794 2.931487 -9.620824 0.000000 0.000000 0.000000 -6.495833 2.778273 -30.529707 25.736687 -36.946925 8.729184 -6.129386 -69.386488 -65.502345 0.000000 0.000000 0.000000 -7.125000 0.000000 0.000000 -90.218252 -70.550244 -110.859803 0.000000 0.000000 0.000000 4.019084 -2.094016 -3.790338 -95.828680 -59.870610 -65.045614 -23.378649 -58.312683 -20.414011 0.000000 0.000000 0.000000 7.125000 0.000000 0.000000 3.261923 7.938176 2.784504
